<mxfile host="Electron" modified="2023-08-04T16:22:56.602Z" agent="Mozilla/5.0 (Macintosh; Intel Mac OS X 10_15_7) AppleWebKit/537.36 (KHTML, like Gecko) draw.io/21.6.5 Chrome/114.0.5735.243 Electron/25.3.1 Safari/537.36" etag="5nPVWQM4obSGu7ZUtAiC" version="21.6.5" type="device">
  <diagram name="Page-1" id="gzwoUPNR0NjfD48ctlmL">
    <mxGraphModel dx="2179" dy="2115" grid="1" gridSize="10" guides="1" tooltips="1" connect="1" arrows="1" fold="1" page="1" pageScale="1" pageWidth="850" pageHeight="1100" math="0" shadow="0">
      <root>
        <mxCell id="0" />
        <mxCell id="1" parent="0" />
        <mxCell id="J4RGrT1Lkn5_XNVJvum3-1" value="" style="rounded=1;whiteSpace=wrap;html=1;" parent="1" vertex="1">
          <mxGeometry x="-134" y="260" width="270" height="200" as="geometry" />
        </mxCell>
        <mxCell id="J4RGrT1Lkn5_XNVJvum3-3" value="" style="image;sketch=0;aspect=fixed;html=1;points=[];align=center;fontSize=12;image=img/lib/mscae/Docker.svg;" parent="1" vertex="1">
          <mxGeometry x="-124" y="270" width="50" height="41" as="geometry" />
        </mxCell>
        <mxCell id="J4RGrT1Lkn5_XNVJvum3-4" value="eth0" style="rounded=0;whiteSpace=wrap;html=1;" parent="1" vertex="1">
          <mxGeometry x="-104" y="450" width="50" height="20" as="geometry" />
        </mxCell>
        <mxCell id="DJOMri-HJvOUFgDKD9Wg-44" style="edgeStyle=orthogonalEdgeStyle;rounded=0;orthogonalLoop=1;jettySize=auto;html=1;entryX=0.5;entryY=0;entryDx=0;entryDy=0;" parent="1" source="J4RGrT1Lkn5_XNVJvum3-6" target="J4RGrT1Lkn5_XNVJvum3-4" edge="1">
          <mxGeometry relative="1" as="geometry" />
        </mxCell>
        <mxCell id="DJOMri-HJvOUFgDKD9Wg-47" style="edgeStyle=orthogonalEdgeStyle;rounded=0;orthogonalLoop=1;jettySize=auto;html=1;entryX=0.5;entryY=0;entryDx=0;entryDy=0;" parent="1" source="J4RGrT1Lkn5_XNVJvum3-6" target="DJOMri-HJvOUFgDKD9Wg-45" edge="1">
          <mxGeometry relative="1" as="geometry">
            <Array as="points">
              <mxPoint x="81" y="360" />
            </Array>
          </mxGeometry>
        </mxCell>
        <mxCell id="J4RGrT1Lkn5_XNVJvum3-6" value="VPN SERVER" style="rounded=0;whiteSpace=wrap;html=1;" parent="1" vertex="1">
          <mxGeometry x="-41" y="345" width="90" height="30" as="geometry" />
        </mxCell>
        <mxCell id="DJOMri-HJvOUFgDKD9Wg-51" style="edgeStyle=orthogonalEdgeStyle;rounded=0;orthogonalLoop=1;jettySize=auto;html=1;entryX=0;entryY=0.5;entryDx=0;entryDy=0;entryPerimeter=0;startArrow=classic;startFill=1;" parent="1" source="J4RGrT1Lkn5_XNVJvum3-7" target="DJOMri-HJvOUFgDKD9Wg-48" edge="1">
          <mxGeometry relative="1" as="geometry">
            <Array as="points">
              <mxPoint x="81" y="570" />
            </Array>
          </mxGeometry>
        </mxCell>
        <mxCell id="J4RGrT1Lkn5_XNVJvum3-7" value="192.168.1.1" style="text;html=1;strokeColor=none;fillColor=none;align=center;verticalAlign=middle;whiteSpace=wrap;rounded=0;" parent="1" vertex="1">
          <mxGeometry x="46" y="470" width="70" height="30" as="geometry" />
        </mxCell>
        <mxCell id="J4RGrT1Lkn5_XNVJvum3-19" value="&lt;span style=&quot;font-size: 14px;&quot;&gt;&lt;b&gt;VPN Server&lt;/b&gt;&lt;/span&gt;" style="text;html=1;strokeColor=none;fillColor=none;align=center;verticalAlign=middle;whiteSpace=wrap;rounded=0;" parent="1" vertex="1">
          <mxGeometry x="-74" y="270" width="80" height="30" as="geometry" />
        </mxCell>
        <mxCell id="J4RGrT1Lkn5_XNVJvum3-20" value="" style="rounded=1;whiteSpace=wrap;html=1;" parent="1" vertex="1">
          <mxGeometry x="249" y="260" width="270" height="200" as="geometry" />
        </mxCell>
        <mxCell id="J4RGrT1Lkn5_XNVJvum3-21" value="" style="image;sketch=0;aspect=fixed;html=1;points=[];align=center;fontSize=12;image=img/lib/mscae/Docker.svg;" parent="1" vertex="1">
          <mxGeometry x="259" y="270" width="50" height="41" as="geometry" />
        </mxCell>
        <mxCell id="J4RGrT1Lkn5_XNVJvum3-22" value="eth0" style="rounded=0;whiteSpace=wrap;html=1;" parent="1" vertex="1">
          <mxGeometry x="287" y="450" width="50" height="20" as="geometry" />
        </mxCell>
        <mxCell id="DJOMri-HJvOUFgDKD9Wg-53" style="edgeStyle=orthogonalEdgeStyle;rounded=0;orthogonalLoop=1;jettySize=auto;html=1;exitX=0.25;exitY=0;exitDx=0;exitDy=0;entryX=0.75;entryY=1;entryDx=0;entryDy=0;startArrow=classic;startFill=1;" parent="1" source="J4RGrT1Lkn5_XNVJvum3-24" target="DJOMri-HJvOUFgDKD9Wg-49" edge="1">
          <mxGeometry relative="1" as="geometry" />
        </mxCell>
        <mxCell id="J4RGrT1Lkn5_XNVJvum3-24" value="tun0" style="rounded=0;whiteSpace=wrap;html=1;" parent="1" vertex="1">
          <mxGeometry x="433" y="450" width="50" height="20" as="geometry" />
        </mxCell>
        <mxCell id="DJOMri-HJvOUFgDKD9Wg-50" style="edgeStyle=orthogonalEdgeStyle;rounded=0;orthogonalLoop=1;jettySize=auto;html=1;entryX=1;entryY=0.5;entryDx=0;entryDy=0;entryPerimeter=0;startArrow=classic;startFill=1;" parent="1" source="J4RGrT1Lkn5_XNVJvum3-27" target="DJOMri-HJvOUFgDKD9Wg-48" edge="1">
          <mxGeometry relative="1" as="geometry">
            <Array as="points">
              <mxPoint x="312" y="570" />
            </Array>
          </mxGeometry>
        </mxCell>
        <mxCell id="J4RGrT1Lkn5_XNVJvum3-27" value="192.168.1.2" style="text;html=1;strokeColor=none;fillColor=none;align=center;verticalAlign=middle;whiteSpace=wrap;rounded=0;" parent="1" vertex="1">
          <mxGeometry x="277" y="470" width="70" height="30" as="geometry" />
        </mxCell>
        <mxCell id="J4RGrT1Lkn5_XNVJvum3-28" value="10.0.1.2" style="text;html=1;strokeColor=none;fillColor=none;align=center;verticalAlign=middle;whiteSpace=wrap;rounded=0;" parent="1" vertex="1">
          <mxGeometry x="423" y="470" width="70" height="30" as="geometry" />
        </mxCell>
        <mxCell id="J4RGrT1Lkn5_XNVJvum3-31" value="&lt;b&gt;&lt;font style=&quot;font-size: 14px;&quot;&gt;VPN Client&amp;nbsp;&lt;br&gt;&lt;/font&gt;&lt;/b&gt;" style="text;html=1;strokeColor=none;fillColor=none;align=center;verticalAlign=middle;whiteSpace=wrap;rounded=0;" parent="1" vertex="1">
          <mxGeometry x="309" y="270" width="100" height="30" as="geometry" />
        </mxCell>
        <mxCell id="DJOMri-HJvOUFgDKD9Wg-16" value="" style="rounded=1;whiteSpace=wrap;html=1;" parent="1" vertex="1">
          <mxGeometry x="-504" y="520" width="270" height="140" as="geometry" />
        </mxCell>
        <mxCell id="DJOMri-HJvOUFgDKD9Wg-17" value="" style="image;sketch=0;aspect=fixed;html=1;points=[];align=center;fontSize=12;image=img/lib/mscae/Docker.svg;" parent="1" vertex="1">
          <mxGeometry x="-494" y="530" width="50" height="41" as="geometry" />
        </mxCell>
        <mxCell id="DJOMri-HJvOUFgDKD9Wg-18" value="eth0" style="rounded=0;whiteSpace=wrap;html=1;" parent="1" vertex="1">
          <mxGeometry x="-474" y="650" width="50" height="20" as="geometry" />
        </mxCell>
        <mxCell id="DJOMri-HJvOUFgDKD9Wg-61" style="edgeStyle=orthogonalEdgeStyle;rounded=0;orthogonalLoop=1;jettySize=auto;html=1;entryX=0.5;entryY=1;entryDx=0;entryDy=0;entryPerimeter=0;startArrow=classic;startFill=1;" parent="1" source="DJOMri-HJvOUFgDKD9Wg-23" target="DJOMri-HJvOUFgDKD9Wg-57" edge="1">
          <mxGeometry relative="1" as="geometry">
            <Array as="points">
              <mxPoint x="-449" y="720" />
              <mxPoint x="-159" y="720" />
            </Array>
          </mxGeometry>
        </mxCell>
        <mxCell id="DJOMri-HJvOUFgDKD9Wg-23" value="10.0.1.11" style="text;html=1;strokeColor=none;fillColor=none;align=center;verticalAlign=middle;whiteSpace=wrap;rounded=0;" parent="1" vertex="1">
          <mxGeometry x="-484" y="670" width="70" height="30" as="geometry" />
        </mxCell>
        <mxCell id="DJOMri-HJvOUFgDKD9Wg-28" value="&lt;span style=&quot;font-size: 14px;&quot;&gt;&lt;b&gt;Web server 2&lt;/b&gt;&lt;/span&gt;" style="text;html=1;strokeColor=none;fillColor=none;align=center;verticalAlign=middle;whiteSpace=wrap;rounded=0;" parent="1" vertex="1">
          <mxGeometry x="-439" y="530" width="95" height="30" as="geometry" />
        </mxCell>
        <mxCell id="DJOMri-HJvOUFgDKD9Wg-30" value="NGINX" style="rounded=0;whiteSpace=wrap;html=1;" parent="1" vertex="1">
          <mxGeometry x="-426.5" y="600" width="115" height="30" as="geometry" />
        </mxCell>
        <mxCell id="DJOMri-HJvOUFgDKD9Wg-38" value="" style="rounded=1;whiteSpace=wrap;html=1;" parent="1" vertex="1">
          <mxGeometry x="-514" y="260" width="270" height="140" as="geometry" />
        </mxCell>
        <mxCell id="DJOMri-HJvOUFgDKD9Wg-39" value="" style="image;sketch=0;aspect=fixed;html=1;points=[];align=center;fontSize=12;image=img/lib/mscae/Docker.svg;" parent="1" vertex="1">
          <mxGeometry x="-504" y="270" width="50" height="41" as="geometry" />
        </mxCell>
        <mxCell id="DJOMri-HJvOUFgDKD9Wg-40" value="eth0" style="rounded=0;whiteSpace=wrap;html=1;" parent="1" vertex="1">
          <mxGeometry x="-484" y="390" width="50" height="20" as="geometry" />
        </mxCell>
        <mxCell id="DJOMri-HJvOUFgDKD9Wg-41" value="10.0.1.10" style="text;html=1;strokeColor=none;fillColor=none;align=center;verticalAlign=middle;whiteSpace=wrap;rounded=0;" parent="1" vertex="1">
          <mxGeometry x="-494" y="410" width="70" height="30" as="geometry" />
        </mxCell>
        <mxCell id="DJOMri-HJvOUFgDKD9Wg-42" value="&lt;span style=&quot;font-size: 14px;&quot;&gt;&lt;b&gt;Web server 1&lt;/b&gt;&lt;/span&gt;" style="text;html=1;strokeColor=none;fillColor=none;align=center;verticalAlign=middle;whiteSpace=wrap;rounded=0;" parent="1" vertex="1">
          <mxGeometry x="-449" y="270" width="95" height="30" as="geometry" />
        </mxCell>
        <mxCell id="DJOMri-HJvOUFgDKD9Wg-43" value="NGINX" style="rounded=0;whiteSpace=wrap;html=1;" parent="1" vertex="1">
          <mxGeometry x="-436.5" y="340" width="115" height="30" as="geometry" />
        </mxCell>
        <mxCell id="DJOMri-HJvOUFgDKD9Wg-45" value="eth1" style="rounded=0;whiteSpace=wrap;html=1;" parent="1" vertex="1">
          <mxGeometry x="56" y="450" width="50" height="20" as="geometry" />
        </mxCell>
        <mxCell id="DJOMri-HJvOUFgDKD9Wg-58" style="edgeStyle=orthogonalEdgeStyle;rounded=0;orthogonalLoop=1;jettySize=auto;html=1;entryX=1;entryY=0.5;entryDx=0;entryDy=0;entryPerimeter=0;startArrow=classic;startFill=1;" parent="1" source="DJOMri-HJvOUFgDKD9Wg-46" target="DJOMri-HJvOUFgDKD9Wg-57" edge="1">
          <mxGeometry relative="1" as="geometry">
            <Array as="points">
              <mxPoint x="-84" y="545" />
            </Array>
          </mxGeometry>
        </mxCell>
        <mxCell id="DJOMri-HJvOUFgDKD9Wg-46" value="10.0.1.2" style="text;html=1;strokeColor=none;fillColor=none;align=center;verticalAlign=middle;whiteSpace=wrap;rounded=0;" parent="1" vertex="1">
          <mxGeometry x="-114" y="470" width="70" height="30" as="geometry" />
        </mxCell>
        <mxCell id="DJOMri-HJvOUFgDKD9Wg-48" value="" style="sketch=0;points=[[0.015,0.015,0],[0.985,0.015,0],[0.985,0.985,0],[0.015,0.985,0],[0.25,0,0],[0.5,0,0],[0.75,0,0],[1,0.25,0],[1,0.5,0],[1,0.75,0],[0.75,1,0],[0.5,1,0],[0.25,1,0],[0,0.75,0],[0,0.5,0],[0,0.25,0]];verticalLabelPosition=bottom;html=1;verticalAlign=top;aspect=fixed;align=center;pointerEvents=1;shape=mxgraph.cisco19.rect;prIcon=l2_switch;fillColor=#FAFAFA;strokeColor=#005073;" parent="1" vertex="1">
          <mxGeometry x="166" y="545" width="50" height="50" as="geometry" />
        </mxCell>
        <mxCell id="DJOMri-HJvOUFgDKD9Wg-54" style="edgeStyle=orthogonalEdgeStyle;rounded=0;orthogonalLoop=1;jettySize=auto;html=1;exitX=0.25;exitY=1;exitDx=0;exitDy=0;entryX=0.5;entryY=0;entryDx=0;entryDy=0;startArrow=classic;startFill=1;" parent="1" source="DJOMri-HJvOUFgDKD9Wg-49" target="J4RGrT1Lkn5_XNVJvum3-22" edge="1">
          <mxGeometry relative="1" as="geometry" />
        </mxCell>
        <mxCell id="DJOMri-HJvOUFgDKD9Wg-49" value="VPN CLIENT" style="rounded=0;whiteSpace=wrap;html=1;" parent="1" vertex="1">
          <mxGeometry x="289" y="370" width="90" height="30" as="geometry" />
        </mxCell>
        <mxCell id="DJOMri-HJvOUFgDKD9Wg-56" style="edgeStyle=orthogonalEdgeStyle;rounded=0;orthogonalLoop=1;jettySize=auto;html=1;entryX=0.75;entryY=0;entryDx=0;entryDy=0;startArrow=classic;startFill=1;" parent="1" source="DJOMri-HJvOUFgDKD9Wg-55" target="J4RGrT1Lkn5_XNVJvum3-24" edge="1">
          <mxGeometry relative="1" as="geometry" />
        </mxCell>
        <mxCell id="DJOMri-HJvOUFgDKD9Wg-55" value="curl 10.0.1.10" style="rounded=0;whiteSpace=wrap;html=1;" parent="1" vertex="1">
          <mxGeometry x="393" y="310" width="90" height="30" as="geometry" />
        </mxCell>
        <mxCell id="DJOMri-HJvOUFgDKD9Wg-66" style="edgeStyle=orthogonalEdgeStyle;rounded=0;orthogonalLoop=1;jettySize=auto;html=1;exitX=0.5;exitY=0;exitDx=0;exitDy=0;exitPerimeter=0;entryX=0.5;entryY=1;entryDx=0;entryDy=0;startArrow=classic;startFill=1;" parent="1" source="DJOMri-HJvOUFgDKD9Wg-57" target="DJOMri-HJvOUFgDKD9Wg-41" edge="1">
          <mxGeometry relative="1" as="geometry">
            <Array as="points">
              <mxPoint x="-159" y="460" />
              <mxPoint x="-459" y="460" />
            </Array>
          </mxGeometry>
        </mxCell>
        <mxCell id="DJOMri-HJvOUFgDKD9Wg-57" value="" style="sketch=0;points=[[0.015,0.015,0],[0.985,0.015,0],[0.985,0.985,0],[0.015,0.985,0],[0.25,0,0],[0.5,0,0],[0.75,0,0],[1,0.25,0],[1,0.5,0],[1,0.75,0],[0.75,1,0],[0.5,1,0],[0.25,1,0],[0,0.75,0],[0,0.5,0],[0,0.25,0]];verticalLabelPosition=bottom;html=1;verticalAlign=top;aspect=fixed;align=center;pointerEvents=1;shape=mxgraph.cisco19.rect;prIcon=l2_switch;fillColor=#FAFAFA;strokeColor=#005073;" parent="1" vertex="1">
          <mxGeometry x="-184" y="520" width="50" height="50" as="geometry" />
        </mxCell>
        <mxCell id="6W_euKgBNWlH1W0Wr_-I-1" value="" style="rounded=1;whiteSpace=wrap;html=1;" vertex="1" parent="1">
          <mxGeometry x="-504" y="-270" width="270" height="200" as="geometry" />
        </mxCell>
        <mxCell id="6W_euKgBNWlH1W0Wr_-I-2" value="" style="image;sketch=0;aspect=fixed;html=1;points=[];align=center;fontSize=12;image=img/lib/mscae/Docker.svg;" vertex="1" parent="1">
          <mxGeometry x="-494" y="-260" width="50" height="41" as="geometry" />
        </mxCell>
        <mxCell id="6W_euKgBNWlH1W0Wr_-I-5" style="edgeStyle=orthogonalEdgeStyle;rounded=0;orthogonalLoop=1;jettySize=auto;html=1;entryX=0.5;entryY=0;entryDx=0;entryDy=0;startArrow=classic;startFill=1;" edge="1" parent="1" source="6W_euKgBNWlH1W0Wr_-I-6" target="6W_euKgBNWlH1W0Wr_-I-32">
          <mxGeometry relative="1" as="geometry">
            <Array as="points">
              <mxPoint x="-288.5" y="-125" />
            </Array>
          </mxGeometry>
        </mxCell>
        <mxCell id="6W_euKgBNWlH1W0Wr_-I-44" style="edgeStyle=orthogonalEdgeStyle;rounded=0;orthogonalLoop=1;jettySize=auto;html=1;exitX=0.25;exitY=1;exitDx=0;exitDy=0;entryX=0.75;entryY=0;entryDx=0;entryDy=0;" edge="1" parent="1" source="6W_euKgBNWlH1W0Wr_-I-6" target="6W_euKgBNWlH1W0Wr_-I-42">
          <mxGeometry relative="1" as="geometry" />
        </mxCell>
        <mxCell id="6W_euKgBNWlH1W0Wr_-I-6" value="VPN SERVER" style="rounded=0;whiteSpace=wrap;html=1;" vertex="1" parent="1">
          <mxGeometry x="-425.5" y="-140" width="90" height="30" as="geometry" />
        </mxCell>
        <mxCell id="6W_euKgBNWlH1W0Wr_-I-7" style="edgeStyle=orthogonalEdgeStyle;rounded=0;orthogonalLoop=1;jettySize=auto;html=1;entryX=0;entryY=0.5;entryDx=0;entryDy=0;entryPerimeter=0;startArrow=classic;startFill=1;" edge="1" parent="1" source="6W_euKgBNWlH1W0Wr_-I-8" target="6W_euKgBNWlH1W0Wr_-I-35">
          <mxGeometry relative="1" as="geometry">
            <Array as="points">
              <mxPoint x="-289" y="40" />
            </Array>
          </mxGeometry>
        </mxCell>
        <mxCell id="6W_euKgBNWlH1W0Wr_-I-8" value="192.168.1.1" style="text;html=1;strokeColor=none;fillColor=none;align=center;verticalAlign=middle;whiteSpace=wrap;rounded=0;" vertex="1" parent="1">
          <mxGeometry x="-324" y="-60" width="70" height="30" as="geometry" />
        </mxCell>
        <mxCell id="6W_euKgBNWlH1W0Wr_-I-9" value="&lt;span style=&quot;font-size: 14px;&quot;&gt;&lt;b&gt;VPN Server&lt;/b&gt;&lt;/span&gt;" style="text;html=1;strokeColor=none;fillColor=none;align=center;verticalAlign=middle;whiteSpace=wrap;rounded=0;" vertex="1" parent="1">
          <mxGeometry x="-444" y="-260" width="80" height="30" as="geometry" />
        </mxCell>
        <mxCell id="6W_euKgBNWlH1W0Wr_-I-10" value="" style="rounded=1;whiteSpace=wrap;html=1;" vertex="1" parent="1">
          <mxGeometry x="-121" y="-270" width="270" height="200" as="geometry" />
        </mxCell>
        <mxCell id="6W_euKgBNWlH1W0Wr_-I-11" value="" style="image;sketch=0;aspect=fixed;html=1;points=[];align=center;fontSize=12;image=img/lib/mscae/Docker.svg;" vertex="1" parent="1">
          <mxGeometry x="-111" y="-260" width="50" height="41" as="geometry" />
        </mxCell>
        <mxCell id="6W_euKgBNWlH1W0Wr_-I-12" value="eth0" style="rounded=0;whiteSpace=wrap;html=1;" vertex="1" parent="1">
          <mxGeometry x="-83" y="-80" width="50" height="20" as="geometry" />
        </mxCell>
        <mxCell id="6W_euKgBNWlH1W0Wr_-I-13" style="edgeStyle=orthogonalEdgeStyle;rounded=0;orthogonalLoop=1;jettySize=auto;html=1;exitX=0.25;exitY=0;exitDx=0;exitDy=0;entryX=0.75;entryY=1;entryDx=0;entryDy=0;startArrow=classic;startFill=1;" edge="1" parent="1" source="6W_euKgBNWlH1W0Wr_-I-14" target="6W_euKgBNWlH1W0Wr_-I-37">
          <mxGeometry relative="1" as="geometry" />
        </mxCell>
        <mxCell id="6W_euKgBNWlH1W0Wr_-I-14" value="tun0" style="rounded=0;whiteSpace=wrap;html=1;" vertex="1" parent="1">
          <mxGeometry x="63" y="-80" width="50" height="20" as="geometry" />
        </mxCell>
        <mxCell id="6W_euKgBNWlH1W0Wr_-I-15" style="edgeStyle=orthogonalEdgeStyle;rounded=0;orthogonalLoop=1;jettySize=auto;html=1;entryX=1;entryY=0.5;entryDx=0;entryDy=0;entryPerimeter=0;startArrow=classic;startFill=1;" edge="1" parent="1" source="6W_euKgBNWlH1W0Wr_-I-16" target="6W_euKgBNWlH1W0Wr_-I-35">
          <mxGeometry relative="1" as="geometry">
            <Array as="points">
              <mxPoint x="-58" y="40" />
            </Array>
          </mxGeometry>
        </mxCell>
        <mxCell id="6W_euKgBNWlH1W0Wr_-I-16" value="192.168.1.2" style="text;html=1;strokeColor=none;fillColor=none;align=center;verticalAlign=middle;whiteSpace=wrap;rounded=0;" vertex="1" parent="1">
          <mxGeometry x="-93" y="-60" width="70" height="30" as="geometry" />
        </mxCell>
        <mxCell id="6W_euKgBNWlH1W0Wr_-I-17" value="10.0.1.2" style="text;html=1;strokeColor=none;fillColor=none;align=center;verticalAlign=middle;whiteSpace=wrap;rounded=0;" vertex="1" parent="1">
          <mxGeometry x="53" y="-60" width="70" height="30" as="geometry" />
        </mxCell>
        <mxCell id="6W_euKgBNWlH1W0Wr_-I-18" value="&lt;b&gt;&lt;font style=&quot;font-size: 14px;&quot;&gt;VPN Client&amp;nbsp;&lt;br&gt;&lt;/font&gt;&lt;/b&gt;" style="text;html=1;strokeColor=none;fillColor=none;align=center;verticalAlign=middle;whiteSpace=wrap;rounded=0;" vertex="1" parent="1">
          <mxGeometry x="-61" y="-260" width="100" height="30" as="geometry" />
        </mxCell>
        <mxCell id="6W_euKgBNWlH1W0Wr_-I-32" value="eth0" style="rounded=0;whiteSpace=wrap;html=1;" vertex="1" parent="1">
          <mxGeometry x="-314" y="-80" width="50" height="20" as="geometry" />
        </mxCell>
        <mxCell id="6W_euKgBNWlH1W0Wr_-I-35" value="" style="sketch=0;points=[[0.015,0.015,0],[0.985,0.015,0],[0.985,0.985,0],[0.015,0.985,0],[0.25,0,0],[0.5,0,0],[0.75,0,0],[1,0.25,0],[1,0.5,0],[1,0.75,0],[0.75,1,0],[0.5,1,0],[0.25,1,0],[0,0.75,0],[0,0.5,0],[0,0.25,0]];verticalLabelPosition=bottom;html=1;verticalAlign=top;aspect=fixed;align=center;pointerEvents=1;shape=mxgraph.cisco19.rect;prIcon=l2_switch;fillColor=#FAFAFA;strokeColor=#005073;" vertex="1" parent="1">
          <mxGeometry x="-204" y="15" width="50" height="50" as="geometry" />
        </mxCell>
        <mxCell id="6W_euKgBNWlH1W0Wr_-I-36" style="edgeStyle=orthogonalEdgeStyle;rounded=0;orthogonalLoop=1;jettySize=auto;html=1;exitX=0.25;exitY=1;exitDx=0;exitDy=0;entryX=0.5;entryY=0;entryDx=0;entryDy=0;startArrow=classic;startFill=1;" edge="1" parent="1" source="6W_euKgBNWlH1W0Wr_-I-37" target="6W_euKgBNWlH1W0Wr_-I-12">
          <mxGeometry relative="1" as="geometry" />
        </mxCell>
        <mxCell id="6W_euKgBNWlH1W0Wr_-I-37" value="VPN CLIENT" style="rounded=0;whiteSpace=wrap;html=1;" vertex="1" parent="1">
          <mxGeometry x="-81" y="-160" width="90" height="30" as="geometry" />
        </mxCell>
        <mxCell id="6W_euKgBNWlH1W0Wr_-I-38" style="edgeStyle=orthogonalEdgeStyle;rounded=0;orthogonalLoop=1;jettySize=auto;html=1;entryX=0.75;entryY=0;entryDx=0;entryDy=0;startArrow=classic;startFill=1;" edge="1" parent="1" source="6W_euKgBNWlH1W0Wr_-I-39" target="6W_euKgBNWlH1W0Wr_-I-14">
          <mxGeometry relative="1" as="geometry" />
        </mxCell>
        <mxCell id="6W_euKgBNWlH1W0Wr_-I-39" value="nc 10.0.1.3 3000" style="rounded=0;whiteSpace=wrap;html=1;" vertex="1" parent="1">
          <mxGeometry x="-13.5" y="-210" width="127" height="30" as="geometry" />
        </mxCell>
        <mxCell id="6W_euKgBNWlH1W0Wr_-I-42" value="tun0" style="rounded=0;whiteSpace=wrap;html=1;" vertex="1" parent="1">
          <mxGeometry x="-451.5" y="-80" width="50" height="20" as="geometry" />
        </mxCell>
        <mxCell id="6W_euKgBNWlH1W0Wr_-I-43" value="10.0.1.3" style="text;html=1;strokeColor=none;fillColor=none;align=center;verticalAlign=middle;whiteSpace=wrap;rounded=0;" vertex="1" parent="1">
          <mxGeometry x="-461.5" y="-60" width="70" height="30" as="geometry" />
        </mxCell>
        <mxCell id="6W_euKgBNWlH1W0Wr_-I-46" style="edgeStyle=orthogonalEdgeStyle;rounded=0;orthogonalLoop=1;jettySize=auto;html=1;exitX=0.25;exitY=1;exitDx=0;exitDy=0;entryX=0.25;entryY=0;entryDx=0;entryDy=0;" edge="1" parent="1" source="6W_euKgBNWlH1W0Wr_-I-45" target="6W_euKgBNWlH1W0Wr_-I-42">
          <mxGeometry relative="1" as="geometry" />
        </mxCell>
        <mxCell id="6W_euKgBNWlH1W0Wr_-I-45" value="nc -l -s 10.0.1.3 -p 3000" style="rounded=0;whiteSpace=wrap;html=1;" vertex="1" parent="1">
          <mxGeometry x="-494" y="-200" width="136.25" height="30" as="geometry" />
        </mxCell>
        <mxCell id="6W_euKgBNWlH1W0Wr_-I-47" value="&lt;font style=&quot;font-size: 30px;&quot;&gt;&lt;b&gt;SCENARIO 1&lt;/b&gt;&lt;/font&gt;" style="text;html=1;strokeColor=none;fillColor=none;align=center;verticalAlign=middle;whiteSpace=wrap;rounded=0;" vertex="1" parent="1">
          <mxGeometry x="-518" y="-340" width="194" height="30" as="geometry" />
        </mxCell>
        <mxCell id="6W_euKgBNWlH1W0Wr_-I-49" value="&lt;font style=&quot;font-size: 30px;&quot;&gt;&lt;b&gt;SCENARIO 2&lt;/b&gt;&lt;/font&gt;" style="text;html=1;strokeColor=none;fillColor=none;align=center;verticalAlign=middle;whiteSpace=wrap;rounded=0;" vertex="1" parent="1">
          <mxGeometry x="-518" y="180" width="194" height="30" as="geometry" />
        </mxCell>
      </root>
    </mxGraphModel>
  </diagram>
</mxfile>
